<svg version="1.2" xmlns="http://www.w3.org/2000/svg" viewBox="0 0 1509 273" width="1509" height="273">
	<title>SUSE_logo-svg</title>
	<style>
		.s0 { fill: #f1f1f1 } 
		.s1 { fill: #30ba78 } 
	</style>
	<g id="Layer_1">
		<g id="g142">
			<path id="path138" fill-rule="evenodd" class="s0" d="m1508.1 208.6c0 8.5-6.8 15.3-15.3 15.3h-97c-24.4 0-44.2-19.8-44.2-44.1v-126.4c0-24.3 19.8-44.1 44.2-44.1h97c8.5 0 15.3 6.9 15.3 15.3 0 8.4-6.8 15.3-15.3 15.3h-97c-7.5 0-13.6 6.1-13.6 13.5v48.3h93.7c8 0 14.6 6.5 14.6 14.5 0 8.1-6.6 14.6-14.6 14.6h-93.7v49c0 7.5 6.1 13.5 13.6 13.5h97c8.5 0 15.3 6.9 15.3 15.3zm-254.9-93.4q17.1 7.9 24.8 19.7 7.8 11.8 7.8 29.3 0 18.8-10.7 33-10.7 14.3-30 21.9-19.3 7.6-44.5 7.6-55 0-82.8-30.9c-5.8-6.5-5.3-16.5 0.9-22.6v-0.1c6.7-6.7 17.9-6.5 24.1 0.7q7.4 8.5 16.8 13.7 16.3 9.1 40.6 9.1 23.1 0 36.2-7.9 13.1-8 13.1-22.5 0-11.7-11.8-18.8-11.8-7.1-41.3-12.6-29.5-5.5-47-13.6-17.5-8.1-25.5-20.1-7.9-12-7.9-29.1 0-18.2 10-33.1 10.1-14.9 29-23.6 19-8.7 44.3-8.7 29.5 0 50.4 10.6 14 7.2 25.1 19.6c6.1 6.7 5.5 17.2-1.3 23.3-7.2 6.5-18.3 5.5-24.3-2.2q-6-7.8-13.3-12.5-13.6-8.7-36.3-8.7-22.4 0-34.7 8.9-12.3 8.9-12.3 22.8 0 12.9 12 20.5c8 5.1 22.3 9.5 42.8 13.2q28.8 5.1 45.8 13.1zm-478.6 0q17.1 8 24.8 19.8 7.8 11.8 7.8 29.3 0 18.8-10.7 33-10.7 14.2-30 21.9-19.2 7.6-44.5 7.6-55 0-82.7-31c-5.8-6.4-5.4-16.4 0.8-22.5v-0.1c6.8-6.7 17.9-6.6 24.2 0.7q7.3 8.5 16.7 13.7 16.3 9.1 40.7 9.1 23 0 36.1-8 13.1-7.9 13.1-22.5 0-11.6-11.8-18.7-11.8-7.2-41.3-12.7-29.5-5.5-47-13.6-17.5-8.1-25.5-20.1-7.9-11.9-7.9-29.1 0-18.1 10.1-33 10-14.9 29-23.6 18.9-8.8 44.2-8.8 29.5 0 50.4 10.7 14.1 7.2 25.1 19.5c6.1 6.8 5.5 17.3-1.3 23.4-7.2 6.5-18.3 5.5-24.2-2.2q-6-7.8-13.4-12.5-13.6-8.8-36.3-8.8-22.3 0-34.7 8.9-12.3 8.9-12.3 22.8 0 13 12 20.6 12 7.6 42.8 13.1 28.8 5.2 45.8 13.1zm273.4-91.2v117.6q0 42-22.4 63.6-22.3 21.5-65.1 21.5-42.8 0-65.2-21.5-22.3-21.6-22.3-63.6v-117.6c0-9.6 7.8-17.4 17.5-17.4 9.6 0 17.5 7.8 17.5 17.4v113.3q0 30.5 12.8 44.9 12.8 14.4 39.7 14.4 26.9 0 39.7-14.4 12.8-14.4 12.8-44.9v-113.3c0-9.6 7.8-17.4 17.5-17.4 9.6 0 17.5 7.8 17.5 17.4z"/>
			<path id="path140" fill-rule="evenodd" class="s1" d="m345.7 185.1c-15.3-5.7-21.3-4.5-40.9-4.3-13.5 0.2-14-0.3-29.5-0.3-4.8 0-6.6 23 10.7 27.7 7.6 2.1 15.8 3.4 21.5 9.3 2.5 2.5 4 6.4-1.9 6.4h-43c-7.5 0-14.6 0.2-20.4-4.7-8.6-7.3-12.7-17.4-17-27.4-4.6-10.4-9.4-20.7-15.1-30.5-11.4-19.5-26.4-37.1-46.5-47.9-25.2-13.5-67.9-20.1-101.7 5.8-35.6 27.3-28 78.5 3.2 103.5 12.3 9.9 28.3 14.1 44.1 13.1 30.8-1.8 53.5-24.4 47.9-52.4-1.9-9.3-7.4-18.2-15.6-23-5.8-3.4-12.8-4.6-19.5-4.6-7.3 0-15 1.5-20.3 6.5-6.2 6-7.2 16.6-2.2 23.6 2.7 3.9 7.2 7.2 6.4 12.3-0.5 3.5-3.3 6-6.7 6.8-5.8 1.3-11.1-2-15-6-10-10.3-13.1-26.7-7.6-40 7.2-17.4 27.2-26.9 46-26.3 24.3 0.8 47.1 16.8 57.1 38.9 9.9 22.1 6.9 49.3-6.8 69.3-30.4 44.4-105.6 39.2-140.6 1.7-21.9-23.5-33.8-46.4-32.1-88.9 1.1-30 18.5-59.6 40.6-80.4 36-34 83.5-57.2 131.8-67.2 29.3-6 59.6-7.4 89.4-4.5 26.3 2.6 52.4 7.4 77.6 15.2 12.5 3.9 24.8 8.6 36.8 14 10.5 4.9 24.3 10.1 32.5 18.5-0.1-15.1-0.6-31.7-0.6-43.2 0-4.4 4.6-7.4 8.6-5.5 17 7.9 57.5 27 84.5 39.3 36.1 16.5 38.7 55.5 40 90 0 0.8 0 1.5-0.3 2.2-1.2 2.4-7.3 1.8-9.5 1.8-4.3 0-10.8 0-15.2 0.2-8.6 0.4-17 0.2-25.6-0.2-16-0.8-31.4-7.9-41.8-16.5-1-0.9-4.3-1.8-5.9-0.2-1.6 1.7-1.1 4.3-0.2 5.2 5.9 6 12.4 9.8 19.8 13.7 9.5 4.9 19.9 6.1 30.4 6.7 11.2 0.7 22.6 0.5 33.8-0.6 9.3-1 11.8-1.6 2.5 5.2-8.1 6-17.5 10.4-27.1 13.6-13.7 4.6-28.2 6.9-42.6 7.3-8.8 0.3-17.5-0.2-26.2-1.3-4.5-0.6-8.9-1.4-13.5-1.8-3.6-0.4-7.4-1.1-11.1-0.3-3.3 0.7-6.3 2.5-8.4 5.2-2.9 3.7-3.9 14-2.2 18.4 3.2 8.6 10.2 13.6 17.6 18 8 4.8 18.6 6.4 20.6 15.5 0.4 1.9-16.6 2-18.5 1.9h-22.7c0 0-12.4 0.3-17.2-1.4q-0.2-0.1-0.4-0.2c-2.6-1.4-3.8-4.9-4.6-7.6-1.3-3.7-3.5-7.4-6.2-11.3-5.2-7.3-13-15.3-21.2-18.3zm155.2-132.3c-23.5-5.5-44.6 15.6-39.1 39.1 2.8 12 12.3 21.5 24.3 24.3 23.5 5.5 44.7-15.6 39.1-39.1-2.8-12-12.3-21.5-24.3-24.3zm10.5 43.5c-2.9 1.9-6.8 1.9-9.7 0-4.8-3.2-5.2-9.8-1.4-13.6 3.4-3.5 9-3.5 12.4 0 3.9 3.8 3.4 10.4-1.3 13.6z"/>
		</g>
	</g>
</svg>
